PathFileType	4	(X/Y/Z)	 subject01_standing_10_70.trc
DataRate	CameraRate	NumFrames	NumMarkers	Units	OrigDataRate	OrigDataStartFrame	OrigNumFrames
2000	100	5	49	mm	2000	376	1000
Frame#	Time	s2			lmt5			lcal			ltoe			llmal			lsh1			lsh2			lsh3			lsh4			llfc			lth1			lth2			lth3			lth4			lgt			lic			lasi			lpsi			rpsi			ric			rasi			rgt			rth1			rth2			rth3			rth4			rlfc			rsh1			rsh2			rsh4			rlmal			rcal			rmt5			rtoe			jug			c7			lacr			lua			llel			lfa			ldr			racr			rua			rlel			rfa			rdr			B3			B2			B1			
		X1	Y1	Z1	X2	Y2	Z2	X3	Y3	Z3	X4	Y4	Z4	X5	Y5	Z5	X6	Y6	Z6	X7	Y7	Z7	X8	Y8	Z8	X9	Y9	Z9	X10	Y10	Z10	X11	Y11	Z11	X12	Y12	Z12	X13	Y13	Z13	X14	Y14	Z14	X15	Y15	Z15	X16	Y16	Z16	X17	Y17	Z17	X18	Y18	Z18	X19	Y19	Z19	X20	Y20	Z20	X21	Y21	Z21	X22	Y22	Z22	X23	Y23	Z23	X24	Y24	Z24	X25	Y25	Z25	X26	Y26	Z26	X27	Y27	Z27	X28	Y28	Z28	X29	Y29	Z29	X30	Y30	Z30	X31	Y31	Z31	X32	Y32	Z32	X33	Y33	Z33	X34	Y34	Z34	X35	Y35	Z35	X36	Y36	Z36	X37	Y37	Z37	X38	Y38	Z38	X39	Y39	Z39	X40	Y40	Z40	X41	Y41	Z41	X42	Y42	Z42	X43	Y43	Z43	X44	Y44	Z44	X45	Y45	Z45	X46	Y46	Z46	X47	Y47	Z47	X48	Y48	Z48	X49	Y49	Z49	
376	3.7600	311.279938	1221.162720	-184.967743	432.039337	435.606079	-404.904510	307.441498	586.416565	-334.219910	525.619507	379.909485	-336.693909	379.221649	557.057129	-380.135529	636.511230	753.237122	-392.158356	578.616943	688.448059	-384.510040	491.439117	659.002686	-384.472717	597.312683	661.631104	-360.061615	714.822205	819.627563	-371.562103	497.795105	1006.200195	-386.141541	574.374939	964.759155	-389.847290	626.541809	890.211914	-384.150421	601.174377	992.613586	-383.115356	404.657043	1118.412598	-377.209045	421.747162	1199.021606	-352.831329	494.682037	1154.005127	-293.370209	331.869507	1250.599609	-231.656860	344.316284	1249.628174	-129.370529	436.078827	1183.150391	-25.822334	496.567352	1141.675903	-82.274765	377.783417	1085.693481	-8.744234	400.835541	930.974792	-4.843993	418.067261	843.036133	-12.824701	393.163971	759.017639	-25.565033	453.668823	841.516541	-28.612345	378.534821	647.901489	-42.402897	315.546082	550.077148	-27.783165	284.852448	466.469818	-41.585915	310.629700	452.557861	-69.670471	153.338654	292.912201	-58.628750	82.629417	309.253784	-106.437553	205.343063	167.642639	-27.715549	305.650909	108.892166	-88.534256	831.365784	1331.764038	-221.625351	837.670776	1488.640137	-216.640472	865.727173	1477.371948	-348.999512	790.766907	1333.337524	-438.887238	724.887634	1185.732178	-469.519592	791.721680	1070.030151	-429.883728	822.221741	951.101379	-393.723541	873.675659	1457.401123	-77.636299	780.393127	1322.328247	12.825847	698.321777	1175.941772	32.955086	779.991577	1061.300293	7.052604	822.163269	951.421387	-31.696142	25.836058	23.110451	45.935280	19.565958	31.033073	-474.319153	-194.750900	887.759155	-210.476517	
377	3.7700	310.901398	1224.380981	-186.401947	440.274109	427.611786	-404.974823	311.077545	574.572754	-334.467255	535.532532	374.900024	-336.779510	383.836884	547.480652	-380.270752	635.909973	750.897156	-391.275024	579.835327	684.545166	-384.068146	493.386444	652.686768	-384.184875	599.298828	658.219604	-359.750702	712.325256	819.409546	-370.268463	496.437866	1007.630859	-386.508759	572.616333	965.764648	-389.948578	624.244995	890.774536	-383.566864	599.489624	993.174377	-383.449768	403.819702	1120.840576	-378.370911	420.947540	1201.584106	-353.413574	494.321503	1157.213989	-295.852325	331.603394	1253.739502	-233.235519	343.900787	1253.184082	-130.773880	435.152161	1186.434326	-27.224558	495.726257	1144.774658	-83.456818	377.119141	1088.971924	-9.777725	401.275665	933.488953	-6.334976	419.750458	845.749451	-14.444008	396.250854	761.438232	-26.813147	455.275177	844.922119	-30.247225	382.322327	650.761597	-43.899426	317.201233	554.848999	-28.722994	284.335602	472.041016	-42.282635	309.320557	457.309998	-70.799797	147.680099	302.477112	-58.888813	77.489754	320.143311	-106.717552	196.795700	175.863815	-27.771544	295.700348	115.004478	-88.404633	831.825684	1332.543213	-221.641861	838.731689	1489.331665	-216.843491	867.242188	1477.633545	-349.073212	792.246338	1333.610107	-438.869690	726.004822	1186.312500	-469.640472	792.461670	1070.208008	-429.746826	822.352478	951.064758	-393.659912	874.133728	1457.912231	-77.702034	781.074646	1322.815308	12.500888	699.154358	1176.322144	32.356400	780.524414	1061.500977	6.756714	821.546936	951.329346	-31.393894	25.819061	23.124084	45.926571	19.549564	31.043892	-474.324066	-194.741943	887.773804	-210.497910	
378	3.7800	310.499329	1227.495728	-187.922073	447.869110	418.890717	-405.046967	314.280884	562.079590	-334.732697	544.638977	369.254700	-336.713257	387.851776	537.163757	-380.407135	634.538513	747.623596	-390.449005	580.239929	679.628662	-383.423340	494.288239	645.594849	-384.329895	600.430298	653.897095	-359.166443	709.125671	818.184265	-369.037476	494.792511	1008.847229	-386.919434	570.555237	966.100403	-390.098877	621.352295	890.566345	-383.040131	597.657471	993.265381	-383.862823	402.926086	1123.121582	-379.696747	420.172699	1203.945435	-354.143188	493.520752	1160.363159	-296.647186	331.400177	1256.828369	-234.732376	343.391602	1256.304688	-132.442719	434.037964	1189.967896	-28.694508	494.730255	1147.875488	-84.544334	376.464813	1092.294800	-10.834905	402.164062	936.150574	-7.800380	422.260956	848.719482	-15.879371	400.468781	763.961365	-28.215584	457.879272	848.654968	-32.054901	387.304749	653.800110	-45.354851	320.095459	559.634399	-29.739120	285.054230	477.958710	-42.963184	309.327637	462.574860	-71.811607	143.244797	312.630432	-59.146065	73.582748	332.055115	-107.035278	189.046265	184.641830	-27.827040	286.435455	121.333740	-88.306686	832.183472	1333.200562	-221.647125	839.717651	1489.935181	-216.857254	868.697937	1477.845825	-348.934021	793.743774	1333.897583	-438.689850	727.167664	1186.643311	-469.400848	793.121460	1070.270874	-429.527344	822.442566	951.032166	-393.553619	874.502625	1458.334351	-77.812752	781.721252	1323.279297	12.182213	699.770142	1176.719849	32.011818	780.980530	1061.682861	6.424354	821.715027	951.341370	-31.461035	25.836273	23.158154	45.929245	19.559141	31.063189	-474.302338	-194.720383	887.779053	-210.556900	
379	3.7900	310.114441	1230.574463	-189.512177	454.777313	409.538452	-405.187042	317.116272	548.878357	-335.151642	552.921265	362.813019	-336.782013	391.354309	526.026062	-380.595306	632.447205	743.234253	-389.751709	579.996948	673.910767	-383.054321	494.828033	637.378784	-384.071320	600.825317	648.870300	-358.744904	705.170288	815.889954	-367.838623	492.945099	1009.551514	-387.561218	568.167542	965.798523	-390.318207	617.981018	889.986450	-383.612701	595.797363	992.662598	-383.967499	401.967560	1125.178711	-380.896088	419.600586	1206.206787	-355.266205	493.168793	1163.022827	-298.122375	331.243866	1259.638062	-236.355469	342.903839	1259.528320	-134.160767	433.045471	1193.389160	-30.139793	493.725067	1151.057129	-85.553917	375.830994	1095.731323	-11.909616	403.643433	938.670837	-9.246798	425.705811	851.874084	-17.463070	405.839264	766.654602	-29.611885	461.182312	852.599792	-33.847260	393.428162	656.689087	-46.628559	324.308472	564.389282	-30.766180	286.795044	483.736725	-43.824638	310.375885	467.986908	-72.764282	140.060333	323.161011	-59.497757	70.805923	344.490112	-107.300545	182.020737	193.901825	-27.902487	277.615601	128.054871	-88.217842	832.447388	1333.758789	-221.522980	840.680359	1490.422729	-216.869980	870.196350	1478.052734	-348.743195	795.339661	1334.114380	-438.423767	728.373169	1187.122803	-469.166107	793.759827	1070.338989	-429.351166	822.551514	950.971924	-393.598907	874.843079	1458.597290	-77.844261	782.209961	1323.728638	12.063382	700.378784	1177.036865	31.561605	781.367493	1061.893555	6.143796	821.815369	951.343872	-31.556179	25.838179	23.195747	45.931736	19.552048	31.088942	-474.318176	-194.722763	887.815186	-210.570496	
380	3.8000	309.807037	1233.472290	-191.026611	461.026550	399.468781	-405.358185	319.518005	535.076538	-335.335968	560.084106	355.594208	-336.579742	394.318115	514.391174	-380.731720	629.654114	737.987732	-389.057739	579.051941	667.292114	-382.615204	494.969696	628.462646	-383.972351	600.358704	642.646912	-358.093353	700.695618	812.694580	-366.775726	490.859192	1009.836670	-388.192535	565.489075	964.859863	-390.627808	613.415344	888.262634	-383.748413	593.438110	991.359985	-384.426697	400.973328	1126.857300	-382.050629	419.199799	1208.267456	-356.545197	492.914032	1165.355957	-299.602661	331.141449	1262.213623	-238.025909	342.376068	1262.473389	-135.954895	432.058075	1196.624023	-31.647310	492.770691	1154.117676	-86.696617	375.257202	1099.066162	-13.147424	405.746704	941.229614	-10.660545	430.049561	854.944580	-19.060322	412.082916	769.307129	-30.851974	464.945129	856.568726	-36.022354	400.766693	659.638306	-47.726704	329.648132	569.197144	-31.647188	289.859131	489.828247	-44.569645	312.684387	473.276672	-73.710045	137.968796	334.195465	-59.780716	69.438141	357.718414	-107.590195	175.872742	203.883194	-27.970062	269.484375	134.933441	-88.124283	832.670044	1334.172729	-221.393433	841.483643	1490.751099	-216.778381	871.581909	1478.160034	-348.285034	796.906799	1334.286377	-438.070343	729.491943	1187.516357	-468.847534	794.401978	1070.453613	-429.194763	822.615845	950.940552	-393.549408	875.138489	1458.709717	-77.866409	782.694824	1324.021362	11.848120	700.796204	1177.391846	31.177025	781.647095	1062.096558	5.863388	821.909180	951.395081	-31.609993	25.829247	23.206636	45.908588	19.544355	31.071228	-474.337341	-194.719788	887.832153	-210.598969	
